# xmcd
#
# Track frame offsets:
#	150
#	14909
#	27620
#	45373
#	57670
#	72523
#	81548
#	93815
#	108833
#	121400
#
# Disc length: 1819 seconds
#
# Revision: 1
# Processed by: cddbd v1.5.1PL2 Copyright (c) Steve Scherf et al.
# Submitted via: audiograbber 1.81.03
#
DISCID=8c07190a
DTITLE=The`Grass - Mulgrave
DYEAR=2006
DGENRE=Country
TTITLE0=Eagle River
TTITLE1=Red Carpet Treatment
TTITLE2=Back Home
TTITLE3=Cocaine Bills
TTITLE4=Mister Bird
TTITLE5=Old Time Medicine
TTITLE6=When The Farm Goes Up For Sale
TTITLE7=My My Freedom
TTITLE8=Bright Bright Candle Light
TTITLE9=Mountain
EXTD=YEAR: 2006
EXTT0=
EXTT1=
EXTT2=
EXTT3=
EXTT4=
EXTT5=
EXTT6=
EXTT7=
EXTT8=
EXTT9=
PLAYORDER=
